<svg width="78" height="78" viewBox="0 0 78 78" fill="none" xmlns="http://www.w3.org/2000/svg">
<g clip-path="url(#clip0_2001_2)">
<path d="M19.4732 58.4192C30.2278 69.1738 47.6645 69.1738 58.4192 58.4192C69.1738 47.6645 69.1738 30.2278 58.4192 19.4731C47.6645 8.71849 30.2278 8.71849 19.4732 19.4731C8.71852 30.2278 8.71852 47.6645 19.4732 58.4192Z" fill="white"/>
<path d="M20.1803 57.712C30.5444 68.0761 47.348 68.0761 57.7121 57.712C68.0762 47.3479 68.0762 30.5443 57.7121 20.1802C47.348 9.81609 30.5444 9.81609 20.1803 20.1802C9.81615 30.5443 9.81615 47.3479 20.1803 57.712Z" stroke="#2C2C2C" stroke-width="2"/>
<rect x="25" y="37" width="28" height="4" fill="#2C2C2C"/>
</g>
<defs>
<clipPath id="clip0_2001_2">
<rect width="77.892" height="77.892" fill="white"/>
</clipPath>
</defs>
</svg>
